<?xml version="1.0" standalone="no"?>
<!DOCTYPE svg PUBLIC "-//W3C//DTD SVG 20010904//EN"
 "http://www.w3.org/TR/2001/REC-SVG-20010904/DTD/svg10.dtd">
<svg version="1.0" xmlns="http://www.w3.org/2000/svg"
 width="1280.000000pt" height="1229.000000pt" viewBox="0 0 1280.000000 1229.000000"
 preserveAspectRatio="xMidYMid meet">
<metadata>
Created by potrace 1.16, written by Peter Selinger 2001-2019
</metadata>
<g transform="translate(0.000000,1229.000000) scale(0.100000,-0.100000)"
fill="#000000" stroke="none">
<path d="M2812 11120 c-110 -40 -206 -139 -237 -245 -22 -72 -19 -193 6 -260
25 -66 85 -146 138 -180 85 -57 128 -66 370 -75 634 -26 1189 -167 1741 -444
1190 -597 2026 -1712 2265 -3021 62 -344 59 -200 62 -2400 l4 -2010 -843 841
c-787 785 -847 842 -906 868 -215 94 -464 -14 -532 -233 -36 -113 -21 -235 41
-331 15 -25 563 -579 1216 -1231 1355 -1353 1231 -1244 1413 -1244 182 0 51
-115 1418 1249 1381 1378 1267 1249 1267 1441 0 104 -2 113 -32 170 -95 183
-299 259 -498 185 -58 -21 -92 -54 -912 -873 l-852 -851 -4 2019 c-3 1456 -7
2048 -15 2120 -80 679 -227 1191 -503 1750 -179 364 -376 667 -647 995 -122
147 -463 489 -612 612 -886 734 -1959 1142 -3065 1164 -210 4 -235 2 -283 -16z"/>
</g>
</svg>
